# xmcd
#
# Track frame offsets:
# 150
# 31717
# 101314
# 131962
# 163935
# 199881
# 229969
# 286267
#
# Disc length: 4083 seconds
#
#
# Revision: 0
# Processed by: cddbd v1.5.2PL0 Copyright (c) Steve Scherf et al.
# Submitted via: FreeRIP 2.945 
#
DISCID=6d0ff108
DTITLE=Walter Trout and The Radicals - Springin' The Blues Fest 4-3-2004
DYEAR=2004
DGENRE=Blues
TTITLE0=Springin' The Blues Fest 4-3-2004 - 1
TTITLE1=Springin' The Blues Fest 4-3-2004 - 2
TTITLE2=Springin' The Blues Fest 4-3-2004 - 3
TTITLE3=Springin' The Blues Fest 4-3-2004 - 4
TTITLE4=Springin' The Blues Fest 4-3-2004 - 5
TTITLE5=Springin' The Blues Fest 4-3-2004 - 6
TTITLE6=Springin' The Blues Fest 4-3-2004 - 7
TTITLE7=Springin' The Blues Fest 4-3-2004 - 8
EXTD=
EXTT0=
EXTT1=
EXTT2=
EXTT3=
EXTT4=
EXTT5=
EXTT6=
EXTT7=
PLAYORDER=
